<svg xmlns="http://www.w3.org/2000/svg" xmlns:xlink="http://www.w3.org/1999/xlink" viewBox="0 0 516 516"><defs><style>.cls-1{fill:none;}.cls-2{isolation:isolate;}.cls-3{fill:#d7ddf3;}.cls-4{fill:#c1c6e1;}.cls-5{fill:#b7bad5;}.cls-6{fill:url(#linear-gradient);}.cls-7{fill:url(#linear-gradient-2);}.cls-18,.cls-24,.cls-8{fill:#fff;}.cls-8{opacity:0.3;mix-blend-mode:overlay;}.cls-9{fill:#f1f3ff;}.cls-10{clip-path:url(#clip-path);}.cls-11{fill:url(#linear-gradient-3);}.cls-12,.cls-17{fill:#ebadbf;}.cls-13{fill:#d48387;}.cls-13,.cls-21,.cls-22{opacity:0.7;}.cls-14{fill:#b51f1b;}.cls-15{fill:url(#linear-gradient-5);}.cls-16{fill:url(#linear-gradient-6);}.cls-17,.cls-24,.cls-26{opacity:0.5;}.cls-19{opacity:0.3;fill:url(#linear-gradient-7);}.cls-20{fill:#bf1b23;}.cls-21{fill:#e1171b;}.cls-22{fill:#f5222c;}.cls-23{fill:#c70014;}.cls-25{opacity:0.1;fill:url(#linear-gradient-8);}</style><linearGradient id="linear-gradient" x1="194.97" y1="491.62" x2="245.53" y2="282.81" gradientUnits="userSpaceOnUse"><stop offset="0" stop-color="#eaeeff"/><stop offset="0.62" stop-color="#e0e5f9"/><stop offset="1" stop-color="#d7ddf3"/></linearGradient><linearGradient id="linear-gradient-2" x1="19.34" y1="344.49" x2="491.17" y2="344.49" gradientUnits="userSpaceOnUse"><stop offset="0" stop-color="#d7ddf3"/><stop offset="0.04" stop-color="#dad4e9"/><stop offset="0.1" stop-color="#e3bccd"/><stop offset="0.18" stop-color="#f195a1"/><stop offset="0.25" stop-color="#fe7077"/><stop offset="0.65" stop-color="#fe7077"/><stop offset="0.88" stop-color="#c4a6ba"/><stop offset="1" stop-color="#a9bfd9"/></linearGradient><clipPath id="clip-path"><path class="cls-1" d="M73.61,249.83C-81.21,44.05,180.54,72.9,258,73.54,349.49,74.3,602.45,53.22,433.91,251c-11.19,35.32-100.15,62.48-180.46,62.54C172.09,313.56,74.22,283.16,73.61,249.83Z"/></clipPath><linearGradient id="linear-gradient-3" x1="357.35" y1="122.79" x2="280.86" y2="296.05" gradientUnits="userSpaceOnUse"><stop offset="0" stop-color="#fad5dd"/><stop offset="1" stop-color="#f0b4c2"/></linearGradient><linearGradient id="linear-gradient-5" x1="112.42" y1="85.09" x2="248.05" y2="341.1" gradientUnits="userSpaceOnUse"><stop offset="0.2" stop-color="#fff4e9"/><stop offset="1" stop-color="#ffd0dd"/></linearGradient><linearGradient id="linear-gradient-6" x1="204.03" y1="255.33" x2="268.3" y2="350.34" gradientUnits="userSpaceOnUse"><stop offset="0" stop-color="#eddfe3"/><stop offset="1" stop-color="#ebadbf"/></linearGradient><linearGradient id="linear-gradient-7" x1="149.19" y1="154.04" x2="192" y2="219.18" gradientTransform="translate(93.37 -54.54) rotate(23.14)" gradientUnits="userSpaceOnUse"><stop offset="0" stop-color="#fff"/><stop offset="0.67" stop-color="#fff" stop-opacity="0.52"/><stop offset="1" stop-color="#fff" stop-opacity="0.3"/></linearGradient><linearGradient id="linear-gradient-8" x1="297.83" y1="73.51" x2="343.22" y2="150.02" gradientUnits="userSpaceOnUse"><stop offset="0" stop-color="#ffdedb"/><stop offset="1" stop-color="#ff9fa8"/></linearGradient></defs><title>Artboard 6</title><g class="cls-2"><g id="Layer_1" data-name="Layer 1"><path id="_Compound_Path_" data-name="&lt;Compound Path&gt;" class="cls-3" d="M253.61,444.58c-60,0-130.33,33.58-128.34,45.83,2.63,16.24,73.55,23.67,130.67,23.59,58.05-.08,123.71-11.9,123.83-24.36S312.09,444.58,253.61,444.58Z"/><path id="_Compound_Path_2" data-name="&lt;Compound Path&gt;" class="cls-4" d="M253.28,360.91c-24,0-113.93-30.42-134-6.94-2.36,2.75,32.18,106.39,35.82,113.9,33.37,20.65,153.69,20.65,194.79.8,3.45-6.6,36.25-108,35.67-114.31C384.33,341.38,278.9,360.9,253.28,360.91Z"/><path class="cls-5" d="M155.29,383,130,393.93c9.76,31,22.85,69.47,25,73.94,5.4,3.34,13.07,6.13,22.31,8.39C166.35,438.29,159,410.74,155.29,383Z"/><path class="cls-5" d="M288.86,390.8c1,14.35,2.5,28.67,4.29,43l29.44.44L320,477.64c12-2.31,22.27-5.3,29.87-9,2.21-4.23,16.5-47.47,26.31-79.59Z"/><path class="cls-6" d="M118.3,429c7.22,12,59.41,32.77,140.91,31.88,71.35-.78,126.61-22.18,135.62-33.26,6-7.4,41.4-80.06,59.61-176.32-46.19-5.67-160.13-8-210.43-4.56-44,3-127.75,11.82-193.56,6.75C73.36,356,114.55,422.73,118.3,429Z"/><path class="cls-7" d="M437.77,320.13c-42.13,19.89-105.1,36.49-182.69,36.49h-1c-43.74-.09-133.11-8.19-184.15-34q2.66,7.74,5.34,15c42.25,15.9,106.82,31.13,178.78,31.28H255c69.84,0,140.6-15,178-33.23Q435.42,328.11,437.77,320.13Z"/><path class="cls-8" d="M374.76,266.55c.72-5.46-2.94-15-2.22-20.43-47-1.49-98.85-1.47-128.53.57-39.78,2.74-112.18,10.2-174.35,7.83a31.33,31.33,0,0,1,1,3.59c4.87,22.18,39.31,146,77.34,187.64,24.43,8.42,62.59,15.61,111.19,15.08a357.86,357.86,0,0,0,78.57-9.48C341.15,437.42,361.66,365.72,374.76,266.55Z"/><path class="cls-9" d="M50.41,252.42c-.92-41.9,112.7-88.07,212.9-85.71,88,2.08,191.37,42.17,191.13,82.31C454.2,289.61,348,327.71,259.91,330,164.65,332.4,51.32,293.92,50.41,252.42Z"/><g class="cls-10"><ellipse class="cls-11" cx="319.14" cy="209.35" rx="122.85" ry="116.04"/><ellipse class="cls-11" cx="319.14" cy="209.35" rx="122.85" ry="116.04"/><path class="cls-12" d="M441.89,213.75c-82.79-4.62-84.91-65.63-69.15-108.84a125.82,125.82,0,0,0-21.11-7.5c-8.05,29.18-7.27,63.94,5.45,88.78,19,37.06,47.24,51.55,78.4,60.52A109.71,109.71,0,0,0,441.89,213.75Z"/><path class="cls-13" d="M243.56,153.15A82.06,82.06,0,0,0,200,165.91a110.88,110.88,0,0,0-7,38.75c0,64.3,55,116.43,122.85,116.43a131.83,131.83,0,0,0,14-.75,137,137,0,0,0,9.56-50.74C339.38,205.29,296.48,153.15,243.56,153.15Z"/><path class="cls-14" d="M252.51,165.31s9.61-27.37,34.42-25.41,45.25,41.42,20.42,96.58c-19.9,44.2,25.46,62.68,45.7,40.48s-1.23-52.12-7.83-77.69c-3.28-12.72-7.51-32.12,3.21-42.67,15.91-15.65,34.31-1.67,43.65,13.89,20.88,34.77,43.69,33.27,49.11,26.81C451,185.7,425.24,93.15,331.52,88.52,243.93,84.2,220,134.17,220,134.17Z"/><ellipse class="cls-15" cx="197.46" cy="245.6" rx="122.85" ry="116.04"/><path class="cls-16" d="M299.07,180.38c-.4,62.69-62.71,114.56-122.32,114-60.54-.59-90.35-37.61-102-54.73q-.17,3-.16,6c0,64.09,55,116,122.85,116s122.85-52,122.85-116A111,111,0,0,0,299.07,180.38Z"/><path class="cls-17" d="M314.51,210.3c-10.82,12.53-27.95,5.09-44-8.93-23.27-20.36-40.73-25.21-64-11.63s-36.84,33-54.3,38.78-34.91-1.94-35.87-34.91C116,180.58,119,165.29,122,154a120.28,120.28,0,0,0-22.55,21.59c-10.21,41.32-4.86,92.12,29.49,99.48,40.73,8.72,65-68.85,95-68.85s44.6,42.66,74.66,36.85c7.82-1.52,14.8-6.28,20.57-12.8A110,110,0,0,0,314.51,210.3Z"/></g><path id="_Path_" data-name="&lt;Path&gt;" class="cls-18" d="M75.26,286.67S133.76,354,321,323.55C321,323.55,164.05,342.47,75.26,286.67Z"/><ellipse class="cls-19" cx="179.9" cy="200.76" rx="92.06" ry="59.02" transform="translate(-64.42 86.85) rotate(-23.14)"/><path class="cls-20" d="M180.37,92.52c-6.07,3.06-10.7,8.32-16.63,11.53-6.58,3.56-14.21,3.62-21.28,5.56-28.05,7.69-27.18,41.63-14,61.71a62.18,62.18,0,0,0,26.79,22.73c21.35-15,48.65-22.62,74.16-19.66a61.12,61.12,0,0,0,10.11-37.59c-.8-14.89-7.08-29.88-18.76-39.16C209.61,88.81,193.27,86,180.37,92.52Z"/><path class="cls-21" d="M235.84,119.16a48.92,48.92,0,0,0-15.12-21.52c-11.11-8.83-27.45-11.64-40.35-5.12-6.07,3.06-10.7,8.32-16.63,11.53-6.58,3.56-14.21,3.62-21.28,5.56-28.05,7.69-27.18,41.63-14,61.71a62.18,62.18,0,0,0,26.79,22.73,112.37,112.37,0,0,1,60.41-20.23C229.28,159.67,236.4,139.8,235.84,119.16Z"/><path class="cls-22" d="M196,161.27c19-16.87,25.08-45.85,14.76-69.38-9.71-3.9-21-4.13-30.37.63-6.07,3.06-10.7,8.32-16.63,11.53-6.58,3.56-14.21,3.62-21.28,5.56-26.44,7.25-27.18,37.82-16.18,58.12C147.85,179.35,176.56,178.48,196,161.27Z"/><path class="cls-23" d="M156,81c-4.82-28.64.79-49.43,2.79-55.55,3.9-4.7,7.38-8.94,10.55-13L166.53,3,157,2l-5,8.34q1.35,7.14,2.69,14.26c-6.59,24.22-5.76,50.13-4.53,57.6l4.95,29.05,20.5-5C170,100.76,161.86,93.55,156,81Z"/><path id="_Path_2" data-name="&lt;Path&gt;" class="cls-24" d="M145.93,120.31c-1.89-1.64-7.42.84-10.69,4.31-5.87,6.23-5.93,17.14-3.12,18.4,2.54,1.13,7.83-5.47,10.25-9.39S148.21,122.29,145.93,120.31Z"/><path class="cls-25" d="M254,116.34c6.22-7,37.7-22.69,78.7-20.5,49.38,2.65,73.94,34.41,77.6,43.93s-2.92,16.11-10.61,11-23.8-19.4-44.29-12.81S337.9,161,329.75,159.28c-4.15-.89-4.39-5.61-5.32-9-3.14-11.33-11.16-19.52-23-21.71-11.52-2.13-23.07,2.28-34.63,1.29S250.25,120.48,254,116.34Z"/><g class="cls-26"><path class="cls-18" d="M268.13,115.32a80.1,80.1,0,0,1,28.39-9.62c4.11-.6,2.41-6.86-1.68-6.27a85.27,85.27,0,0,0-29.95,10.27c-3.63,2-.41,7.68,3.24,5.62Z"/></g><g class="cls-26"><path class="cls-18" d="M312,102.1l7.18-.7a3.33,3.33,0,0,0,3.26-3.22c0-1.61-1.46-3.44-3.22-3.27l-7.18.71a3.33,3.33,0,0,0-3.26,3.22c0,1.61,1.47,3.44,3.22,3.26Z"/></g></g></g></svg>